<?xml version="1.0" encoding="UTF-8" standalone="no"?>
<!DOCTYPE svg PUBLIC "-//W3C//DTD SVG 1.1//EN"
 "http://www.w3.org/Graphics/SVG/1.1/DTD/svg11.dtd">
<!-- Generated by graphviz version 15.1.0 (0)
 -->
<!-- Pages: 1 -->
<svg width="354pt" height="428pt"
 viewBox="0.00 0.00 354.00 428.00" xmlns="http://www.w3.org/2000/svg" xmlns:xlink="http://www.w3.org/1999/xlink">
<g id="graph0" class="graph" transform="scale(1 1) rotate(0) translate(28.8 399.2)">
<g id="clust1" class="cluster">
<title>cluster_a</title>
<polygon fill="none" stroke="#a8823c" stroke-dasharray="5,2" points="8,-8 8,-362.4 138,-362.4 138,-8 8,-8"/>
<text xml:space="preserve" text-anchor="middle" x="73" y="-348.5" font-family="Helvetica,sans-Serif" font-size="11.00">A (×2)</text>
</g>
<g id="clust2" class="cluster">
<title>cluster_b</title>
<polygon fill="none" stroke="#a8823c" stroke-dasharray="5,2" points="146,-89 146,-170.2 288,-170.2 288,-89 146,-89"/>
<text xml:space="preserve" text-anchor="middle" x="217" y="-156.3" font-family="Helvetica,sans-Serif" font-size="11.00">B — bridge</text>
</g>
<!-- Bbmaj7 -->
<g id="node1" class="node">
<title>Bbmaj7</title>
<text xml:space="preserve" text-anchor="middle" x="71" y="-302.2" font-family="ChordFont" font-size="30.00">Bbmaj7</text>
</g>
<!-- G7 -->
<g id="node2" class="node">
<title>G7</title>
<text xml:space="preserve" text-anchor="middle" x="98" y="-221.2" font-family="ChordFont" font-size="30.00">G7</text>
</g>
<!-- Bbmaj7&#45;&gt;G7 -->
<g id="edge1" class="edge">
<title>Bbmaj7&#45;&gt;G7</title>
<path fill="none" stroke="#6f6a5e" stroke-width="1.4" d="M78.09,-289.44C81.11,-280.62 84.68,-270.18 87.96,-260.59"/>
<polygon fill="#6f6a5e" stroke="#6f6a5e" stroke-width="1.4" points="90.23,-261.51 90.17,-254.1 85.59,-259.93 90.23,-261.51"/>
</g>
<!-- Cm7 -->
<g id="node3" class="node">
<title>Cm7</title>
<text xml:space="preserve" text-anchor="middle" x="93" y="-110" font-family="ChordFont" font-size="30.00">Cm7</text>
</g>
<!-- G7&#45;&gt;Cm7 -->
<g id="edge2" class="edge">
<title>G7&#45;&gt;Cm7</title>
<path fill="none" stroke="#6f6a5e" stroke-width="1.4" d="M97.05,-208.4C96.29,-191.78 95.21,-168.27 94.36,-149.67"/>
<polygon fill="#6f6a5e" stroke="#6f6a5e" stroke-width="1.4" points="96.81,-149.72 94.05,-142.84 91.92,-149.94 96.81,-149.72"/>
</g>
<!-- C7 -->
<g id="node6" class="node">
<title>C7</title>
<text xml:space="preserve" text-anchor="middle" x="253" y="-110" font-family="ChordFont" font-size="30.00">C7</text>
</g>
<!-- G7&#45;&gt;C7 -->
<g id="edge7" class="edge">
<title>G7&#45;&gt;C7</title>
<path fill="none" stroke="#6f6a5e" stroke-width="1.4" d="M124.76,-220.25C150.42,-210.74 189.24,-193.8 217,-170.2 224.23,-164.05 230.77,-156.16 236.22,-148.46"/>
<polygon fill="#6f6a5e" stroke="#6f6a5e" stroke-width="1.4" points="238.25,-149.83 240.12,-142.65 234.18,-147.09 238.25,-149.83"/>
</g>
<!-- F7 -->
<g id="node4" class="node">
<title>F7</title>
<text xml:space="preserve" text-anchor="middle" x="93" y="-29" font-family="ChordFont" font-size="30.00">F7</text>
</g>
<!-- Cm7&#45;&gt;F7 -->
<g id="edge3" class="edge">
<title>Cm7&#45;&gt;F7</title>
<path fill="none" stroke="#6f6a5e" stroke-width="1.4" d="M93,-97.24C93,-88.6 93,-78.41 93,-68.98"/>
<polygon fill="#6f6a5e" stroke="#6f6a5e" stroke-width="1.4" points="95.45,-69.01 93,-62.01 90.55,-69.01 95.45,-69.01"/>
</g>
<!-- F7&#45;&gt;Bbmaj7 -->
<g id="edge4" class="edge">
<title>F7&#45;&gt;Bbmaj7</title>
<path fill="none" stroke="#6f6a5e" stroke-width="1.4" d="M66.01,-49.6C53.56,-55.93 39.83,-65.25 32,-78 8.58,-116.14 24.22,-133.5 22,-178.2 19.92,-219.95 17.77,-233.59 36,-271.2 37.88,-275.09 40.27,-278.88 42.92,-282.47"/>
<polygon fill="#6f6a5e" stroke="#6f6a5e" stroke-width="1.4" points="40.99,-283.97 47.29,-287.88 44.8,-280.9 40.99,-283.97"/>
</g>
<!-- F7&#45;&gt;Bbmaj7 -->
<g id="edge9" class="edge">
<title>F7&#45;&gt;Bbmaj7</title>
<path fill="none" stroke="#a8823c" stroke-width="1.4" d="M67.35,-59.83C59.24,-67.98 51.29,-78.01 47,-89 21.66,-153.98 44,-237.34 59.37,-280.82"/>
<polygon fill="#a8823c" stroke="#a8823c" stroke-width="1.4" points="57.01,-281.49 61.71,-287.23 61.61,-279.82 57.01,-281.49"/>
<text xml:space="preserve" text-anchor="middle" x="41.71" y="-181.2" font-family="Helvetica,sans-Serif" font-size="10.00">A&#39;</text>
</g>
<!-- D7 -->
<g id="node5" class="node">
<title>D7</title>
<text xml:space="preserve" text-anchor="middle" x="181" y="-110" font-family="ChordFont" font-size="30.00">D7</text>
</g>
<!-- F7&#45;&gt;D7 -->
<g id="edge5" class="edge">
<title>F7&#45;&gt;D7</title>
<path fill="none" stroke="#6f6a5e" stroke-width="1.4" d="M116.27,-59.89C127.02,-69.54 139.91,-81.11 151.34,-91.37"/>
<polygon fill="#6f6a5e" stroke="#6f6a5e" stroke-width="1.4" points="149.46,-92.98 156.3,-95.83 152.73,-89.33 149.46,-92.98"/>
</g>
<!-- D7&#45;&gt;G7 -->
<g id="edge6" class="edge">
<title>D7&#45;&gt;G7</title>
<path fill="none" stroke="#6f6a5e" stroke-width="1.4" d="M165.25,-140.72C152.23,-157.85 133.62,-182.34 119.27,-201.21"/>
<polygon fill="#6f6a5e" stroke="#6f6a5e" stroke-width="1.4" points="117.37,-199.66 115.09,-206.72 121.28,-202.63 117.37,-199.66"/>
</g>
<!-- C7&#45;&gt;F7 -->
<g id="edge8" class="edge">
<title>C7&#45;&gt;F7</title>
<path fill="none" stroke="#6f6a5e" stroke-width="1.4" d="M228.91,-97.02C225.06,-94.13 221.01,-91.36 217,-89 188.71,-72.4 153.86,-58.88 128.32,-50.11"/>
<polygon fill="#6f6a5e" stroke="#6f6a5e" stroke-width="1.4" points="129.12,-47.8 121.7,-47.89 127.56,-52.44 129.12,-47.8"/>
</g>
</g>
</svg>
